<?xml version="1.0" encoding="utf-8"?>
<svg height="16px" viewBox="0 0 16 16" width="16px" xmlns="http://www.w3.org/2000/svg">
  <g id="g282" transform="matrix(1, 0, 0, 1, 392, -1170.520142)">
    <g id="g281" transform="translate(0,0.5)">
      <path d="m -388,1172.52 c 0,-0.2656 0.1055,-0.5195 0.293,-0.707 0.3906,-0.3906 1.0234,-0.3906 1.414,0 l 2.293,2.293 2.293,-2.293 c 0.3906,-0.3906 1.0234,-0.3906 1.414,0 0.1875,0.1875 0.293,0.4414 0.293,0.707 0,0.2656 -0.1055,0.5195 -0.293,0.707 l -3,3 c -0.3906,0.3907 -1.0234,0.3907 -1.414,0 l -3,-3 c -0.1875,-0.1875 -0.293,-0.4414 -0.293,-0.707 z" fill="#2e3436"/>
      <path d="m -388,1183.5201 c 0,0.2656 0.1055,0.5195 0.293,0.707 0.3906,0.3906 1.0234,0.3906 1.414,0 l 2.293,-2.293 2.293,2.293 c 0.3906,0.3906 1.0234,0.3906 1.414,0 0.1875,-0.1875 0.293,-0.4414 0.293,-0.707 0,-0.2656 -0.1055,-0.5195 -0.293,-0.707 l -3,-3 c -0.3906,-0.3907 -1.0234,-0.3907 -1.414,0 l -3,3 c -0.1875,0.1875 -0.293,0.4414 -0.293,0.707 z" fill="#2e3436"/>
    </g>
  </g>
</svg>