<svg viewBox="0 0 1920 1920" xmlns="http://www.w3.org/2000/svg">
    <path d="M1581.235 734.118c0 217.976-177.317 395.294-395.294 395.294H960.06c-217.977 0-395.294-177.318-395.294-395.294V564.706h1016.47v169.412Zm225.883-282.353h-338.824V0h-112.941v451.765H790.647V0H677.706v451.765H338.882v112.94h112.942v169.413c0 280.207 228.028 508.235 508.235 508.235h56.47v395.294c0 93.402-76.009 169.412-169.411 169.412-93.403 0-169.412-76.01-169.412-169.412 0-155.633-126.72-282.353-282.353-282.353S113 1482.014 113 1637.647V1920h112.941v-282.353c0-93.402 76.01-169.412 169.412-169.412s169.412 76.01 169.412 169.412c0 155.633 126.72 282.353 282.353 282.353 155.746 0 282.353-126.72 282.353-282.353v-395.294h56.47c280.207 0 508.235-228.028 508.235-508.235V564.706h112.942V451.765Z" fill-rule="evenodd"/>
</svg>
