<?xml version="1.0" encoding="utf-8"?>
<svg height="16px" viewBox="0 0 16 16" width="16px" xmlns="http://www.w3.org/2000/svg">
  <path d="M 4 2.5 C 4 2.234 4.106 1.98 4.293 1.793 C 4.684 1.402 5.317 1.402 5.707 1.793 L 8 4.086 L 10.293 1.793 C 10.684 1.402 11.317 1.402 11.707 1.793 C 11.895 1.98 12 2.234 12 2.5 C 12 2.766 11.895 3.019 11.707 3.207 L 8.707 6.207 C 8.317 6.598 7.684 6.598 7.293 6.207 L 4.293 3.207 C 4.106 3.019 4 2.766 4 2.5 Z" fill="#2e3436"/>
  <path d="M 4 13.5 C 4 13.766 4.106 14.019 4.293 14.207 C 4.684 14.598 5.317 14.598 5.707 14.207 L 8 11.914 L 10.293 14.207 C 10.684 14.598 11.317 14.598 11.707 14.207 C 11.895 14.019 12 13.766 12 13.5 C 12 13.234 11.895 12.98 11.707 12.793 L 8.707 9.793 C 8.317 9.402 7.684 9.402 7.293 9.793 L 4.293 12.793 C 4.106 12.98 4 13.234 4 13.5 Z" fill="#2e3436"/>
</svg>
